<?xml version="1.0" standalone="no"?>
<!DOCTYPE svg PUBLIC "-//W3C//DTD SVG 20010904//EN"
 "http://www.w3.org/TR/2001/REC-SVG-20010904/DTD/svg10.dtd">
<svg version="1.0" xmlns="http://www.w3.org/2000/svg"
 width="347.000000pt" height="587.000000pt" viewBox="0 0 347.000000 587.000000"
 preserveAspectRatio="xMidYMid meet">
<metadata>
Created by potrace 1.16, written by Peter Selinger 2001-2019
</metadata>
<g transform="translate(0.000000,587.000000) scale(0.100000,-0.100000)"
fill="#0000FF" stroke="none">
<path d="M2043 5728 c-11 -13 -161 -225 -332 -473 -246 -356 -311 -456 -311
-481 0 -39 20 -56 58 -52 24 2 60 40 218 228 270 323 318 379 323 374 11 -11
29 -178 21 -202 -17 -62 -48 -97 -265 -301 -211 -199 -227 -216 -222 -244 5
-34 12 -41 -167 165 -146 168 -167 188 -197 188 -63 0 -80 -75 -31 -132 16
-18 138 -159 273 -313 134 -154 257 -296 273 -315 l28 -34 -22 -18 c-44 -36
-68 -25 -195 87 -109 97 -122 106 -154 103 -29 -2 -38 -8 -45 -31 -14 -38 -5
-51 128 -192 l109 -116 -24 -25 c-48 -52 -32 -60 -429 207 -338 227 -375 250
-408 247 -29 -2 -40 -9 -50 -31 -7 -15 -10 -36 -7 -47 3 -10 142 -115 308
-231 166 -117 319 -226 341 -243 39 -30 100 -106 92 -114 -3 -2 -71 24 -152
58 -81 34 -161 64 -179 67 -41 7 -65 -17 -65 -62 0 -34 2 -35 131 -101 106
-54 135 -73 156 -105 14 -22 23 -43 19 -47 -25 -24 -99 4 -484 182 -435 201
-472 213 -472 156 0 -36 19 -77 48 -103 11 -10 199 -102 419 -205 379 -178
453 -216 442 -226 -2 -3 -81 17 -174 44 -179 52 -213 58 -233 38 -20 -20 -15
-86 7 -97 10 -6 97 -38 192 -72 96 -33 182 -68 191 -76 22 -20 23 -52 2 -60
-8 -3 -214 4 -457 16 -243 12 -468 21 -499 21 l-58 0 0 -45 c0 -34 5 -47 20
-55 27 -14 225 -34 595 -60 171 -11 328 -26 350 -31 50 -13 97 -45 75 -53 -8
-3 -105 -12 -215 -21 -110 -9 -206 -21 -212 -27 -18 -14 -16 -83 2 -101 12
-13 49 -14 232 -10 213 5 219 5 246 -16 58 -47 64 -45 -486 -215 -281 -87
-522 -164 -535 -172 -24 -16 -28 -40 -10 -79 17 -38 60 -33 327 39 130 36 369
99 531 141 162 42 302 78 310 81 21 7 15 2 -188 -161 -169 -135 -187 -153
-190 -183 -2 -22 3 -41 14 -53 35 -39 64 -26 266 121 106 77 203 143 216 146
38 10 71 -5 101 -46 61 -85 62 -203 2 -235 -36 -18 -157 -6 -245 24 -66 23
-126 27 -144 9 -16 -16 -15 -73 1 -87 8 -6 81 -36 162 -67 183 -68 185 -69
185 -98 0 -40 -28 -117 -51 -142 -60 -64 -290 5 -424 128 -73 67 -125 142
-215 311 -70 130 -84 140 -144 112 -52 -25 -48 -52 35 -217 82 -165 112 -209
206 -299 111 -108 223 -169 382 -210 41 -11 79 -23 84 -28 11 -11 -18 -80 -37
-87 -21 -8 -136 30 -221 72 -145 73 -304 220 -409 378 -52 77 -142 251 -179
343 -21 53 -44 56 -53 7 -11 -57 3 -193 26 -258 62 -179 234 -402 419 -542 78
-59 288 -174 318 -174 31 0 17 -32 -83 -183 -259 -393 -464 -635 -717 -846
-62 -51 -67 -59 -65 -91 l3 -35 115 -3 c171 -4 176 -1 303 166 56 75 205 272
330 438 337 448 427 528 792 709 219 108 353 202 499 348 348 349 592 861 683
1433 25 157 25 519 0 669 -51 301 -147 558 -310 830 -33 55 -175 272 -315 483
-209 313 -259 382 -277 382 -31 0 -37 -9 -80 -145 l-39 -120 -27 193 c-15 106
-30 199 -33 207 -8 22 -50 18 -73 -7z m489 -793 c353 -509 444 -700 495 -1045
25 -167 25 -614 0 -761 -113 -669 -491 -1207 -1082 -1536 -104 -58 -212 -113
-289 -147 l-54 -24 15 46 c19 58 55 108 91 126 15 7 83 32 152 55 176 60 235
98 326 213 39 49 80 84 138 122 135 87 178 142 225 290 26 82 69 151 143 231
72 78 75 85 93 205 20 130 46 208 100 295 69 111 77 170 44 317 -12 52 -11 66
10 151 29 117 24 160 -35 289 -55 122 -63 158 -57 261 7 106 -5 142 -69 215
-61 69 -96 140 -109 224 -12 75 -42 144 -100 229 -66 98 -125 221 -150 314
-20 76 -25 85 -45 85 -19 0 -30 -13 -58 -72 -19 -40 -39 -92 -45 -115 -16 -58
-26 -60 -41 -8 -27 96 8 234 76 302 l25 25 28 -38 c15 -22 93 -133 173 -249z
m-468 -92 c16 -84 17 -105 2 -163 -19 -72 -56 -145 -101 -197 l-32 -37 -56 77
c-36 49 -66 79 -82 83 -35 9 -75 -19 -75 -52 0 -13 32 -84 70 -158 39 -73 70
-136 70 -139 0 -13 -31 -7 -70 13 -35 18 -61 47 -216 239 l-22 26 37 -2 c33
-2 53 11 246 166 116 93 213 170 217 170 3 1 9 -11 12 -26z m365 -233 c37 -69
58 -134 76 -227 18 -95 42 -147 95 -208 68 -78 79 -113 82 -256 3 -124 4 -125
46 -214 55 -113 61 -157 33 -220 -25 -57 -27 -124 -5 -208 21 -83 13 -125 -50
-250 -30 -57 -59 -131 -66 -163 -6 -33 -15 -81 -21 -109 -14 -73 -43 -126
-106 -196 -65 -73 -97 -138 -113 -228 -21 -118 -57 -163 -177 -226 -74 -38
-136 -97 -203 -191 -37 -51 -59 -65 -207 -128 l-81 -34 23 85 c12 46 29 90 36
98 8 7 73 43 144 80 72 38 149 83 171 101 54 43 98 113 129 204 33 98 65 149
119 193 69 57 87 104 84 223 -2 118 15 167 91 254 93 106 112 185 67 280 -14
30 -26 67 -26 82 0 15 16 67 37 115 57 137 51 207 -28 316 -35 48 -59 124 -59
184 0 62 -27 171 -53 217 -30 54 -76 78 -171 91 l-80 10 -9 45 c-20 99 29 255
109 349 l38 44 23 -29 c12 -16 36 -54 52 -84z m-109 -517 c31 -32 38 -47 44
-95 4 -32 5 -62 1 -68 -4 -6 -1 -43 5 -83 8 -55 21 -89 56 -147 41 -68 45 -80
41 -126 -3 -40 -12 -63 -42 -104 -50 -68 -57 -124 -25 -216 26 -77 22 -114
-17 -170 -115 -168 -126 -195 -116 -300 8 -86 0 -107 -66 -178 -60 -64 -80
-106 -101 -208 -18 -88 -62 -146 -140 -185 -36 -17 -66 -30 -67 -29 -2 1 20
114 47 252 145 733 251 1323 280 1569 7 55 14 106 16 113 7 24 47 12 84 -25z
m-253 -70 c-3 -54 -17 -174 -32 -268 -24 -159 -242 -1265 -251 -1274 -18 -19
-221 177 -273 262 -88 149 -120 291 -102 467 32 337 179 604 428 782 76 54
206 128 226 128 6 0 8 -36 4 -97z"/>
</g>
</svg>
