<?xml version="1.0" standalone="no"?>
<!DOCTYPE svg PUBLIC "-//W3C//DTD SVG 20010904//EN"
 "http://www.w3.org/TR/2001/REC-SVG-20010904/DTD/svg10.dtd">
<svg version="1.0" xmlns="http://www.w3.org/2000/svg"
 width="320.000000pt" height="580.000000pt" viewBox="0 0 320.000000 580.000000"
 preserveAspectRatio="xMidYMid meet">
<metadata>
Created by potrace 1.16, written by Peter Selinger 2001-2019
</metadata>
<g transform="translate(0.000000,580.000000) scale(0.100000,-0.100000)"
fill="#000000" stroke="none">
<path d="M1596 5249 c-180 -259 -329 -484 -333 -499 -6 -32 24 -70 55 -70 24
0 52 31 293 319 112 134 216 258 230 274 l25 30 12 -84 c7 -46 12 -95 12 -108
0 -59 -41 -109 -248 -302 -113 -107 -214 -202 -224 -211 -38 -37 -10 -108 42
-108 9 0 116 79 238 175 l221 174 12 -42 c26 -96 -9 -223 -93 -340 l-35 -47
-59 77 c-50 66 -64 78 -92 81 -84 8 -82 -44 8 -214 39 -74 70 -136 70 -138 0
-7 -52 9 -87 27 -16 9 -61 56 -100 104 -38 48 -110 133 -159 187 -49 55 -136
154 -193 220 -57 67 -115 127 -129 134 -50 28 -103 -15 -88 -72 4 -15 139
-178 301 -364 163 -185 294 -344 293 -352 -5 -23 -56 -44 -82 -32 -11 5 -72
55 -134 111 -85 77 -119 101 -140 101 -37 0 -52 -17 -52 -57 0 -29 17 -51 120
-160 l119 -128 -31 -32 c-18 -18 -37 -33 -43 -33 -7 0 -179 113 -383 250 -269
181 -380 250 -401 250 -36 0 -61 -28 -61 -67 0 -29 18 -44 317 -254 175 -123
335 -239 356 -258 39 -35 75 -91 59 -91 -5 0 -73 27 -151 60 -166 70 -215 77
-232 33 -21 -55 -7 -69 129 -136 99 -48 132 -70 150 -96 29 -45 24 -56 -24
-55 -28 0 -148 51 -443 187 -222 103 -416 187 -432 187 -19 0 -30 -6 -34 -20
-7 -23 24 -98 51 -121 10 -9 134 -70 274 -134 378 -175 576 -271 584 -284 10
-16 4 -15 -114 19 -271 78 -290 80 -304 24 -15 -59 -13 -60 234 -146 181 -63
203 -77 181 -115 -10 -19 -18 -19 -561 7 -499 25 -458 26 -466 -5 -11 -43 3
-73 38 -84 40 -12 280 -35 651 -61 276 -19 327 -28 357 -64 11 -15 -3 -17
-259 -37 -180 -15 -198 -23 -186 -87 4 -21 12 -41 18 -45 7 -4 112 -7 235 -5
l224 3 24 -29 c14 -15 23 -33 21 -39 -1 -5 -25 -16 -52 -23 -50 -12 -965 -296
-998 -309 -24 -10 -23 -76 1 -98 25 -23 39 -22 182 18 69 19 126 35 128 35 1
0 2 -49 2 -108 0 -126 14 -182 73 -297 90 -173 259 -361 423 -471 88 -59 125
-79 237 -128 l58 -25 -120 -180 c-249 -372 -436 -596 -655 -786 -115 -100
-127 -113 -124 -140 l3 -30 131 -3 c122 -2 132 -1 165 21 36 24 76 74 445 564
358 475 434 543 824 735 319 158 546 362 752 678 218 333 373 766 419 1169 16
140 7 517 -15 634 -54 287 -147 527 -306 792 -40 66 -183 286 -318 488 -240
359 -247 368 -276 365 -30 -3 -32 -6 -72 -128 -47 -145 -43 -150 -75 95 -12
94 -26 176 -32 183 -5 6 -20 12 -32 12 -19 0 -82 -85 -349 -471z m781 -319
c421 -606 501 -797 534 -1283 58 -844 -287 -1561 -965 -2005 -121 -80 -469
-259 -474 -244 -7 21 41 113 74 141 22 20 74 43 161 71 189 61 257 106 366
243 22 27 75 72 120 101 84 54 154 121 180 172 8 16 24 61 36 99 27 91 65 155
138 235 78 84 90 110 103 213 13 106 40 195 82 267 74 129 78 141 78 211 0 37
-7 97 -15 132 -13 58 -13 69 3 123 10 36 17 92 17 144 0 81 -2 90 -50 190
l-50 105 0 125 c-1 69 -6 136 -12 151 -6 14 -32 50 -58 80 -60 69 -101 156
-115 243 -12 77 -27 110 -104 228 -81 126 -114 198 -151 331 -12 44 -20 57
-35 57 -25 0 -63 -65 -99 -171 l-28 -84 -14 40 c-22 65 -17 161 12 225 29 63
78 125 89 113 4 -4 84 -118 177 -253z m-106 -316 c51 -86 74 -147 97 -256 23
-108 47 -161 96 -216 68 -75 80 -113 86 -262 6 -134 6 -136 48 -222 46 -94 54
-156 27 -207 -25 -50 -29 -105 -10 -181 26 -105 17 -154 -49 -285 -46 -91 -58
-126 -71 -203 -18 -115 -47 -180 -114 -252 -61 -66 -93 -129 -115 -229 -30
-131 -55 -165 -173 -226 -74 -38 -145 -105 -213 -200 -32 -46 -45 -54 -155
-102 -66 -28 -121 -50 -123 -48 -6 6 38 158 50 172 5 7 73 45 150 85 200 104
251 159 307 330 25 74 65 135 111 170 61 45 74 80 80 213 6 140 20 178 102
271 28 32 57 73 64 91 21 50 18 137 -7 186 -31 60 -29 102 10 187 59 127 55
202 -14 304 -48 69 -58 103 -74 236 -6 47 -15 101 -21 121 -27 95 -101 149
-201 149 -78 0 -89 13 -89 99 0 118 38 223 112 307 17 19 36 33 42 31 6 -2 27
-30 47 -63z m-366 -861 c-44 -284 -243 -1284 -258 -1300 -14 -13 -134 87 -210
176 -63 73 -131 210 -153 307 -13 60 -16 105 -11 203 17 399 218 718 568 905
l84 45 3 -84 c2 -54 -6 -143 -23 -252z m285 302 l34 -35 7 -129 c5 -117 9
-133 34 -177 57 -98 75 -138 75 -163 0 -30 -29 -90 -65 -140 -32 -43 -34 -123
-5 -206 25 -74 21 -90 -65 -219 -72 -108 -80 -137 -71 -235 9 -86 -1 -111 -74
-186 -44 -46 -62 -75 -74 -115 -9 -29 -16 -61 -16 -70 0 -39 -35 -112 -71
-148 -39 -39 -139 -90 -139 -71 0 6 36 196 80 422 146 746 250 1345 250 1439
0 53 9 68 39 68 18 0 39 -12 61 -35z m-905 -1564 c-6 -5 -91 -73 -190 -152
-99 -78 -183 -147 -187 -153 -13 -19 -9 -59 9 -78 37 -41 70 -26 275 122 106
77 206 142 222 146 39 9 74 -19 109 -86 39 -77 38 -141 -4 -182 -29 -30 -32
-31 -97 -25 -37 3 -106 17 -155 31 -122 36 -143 35 -157 -9 -21 -63 -12 -68
258 -167 48 -17 87 -38 92 -49 15 -28 -16 -127 -51 -162 -26 -26 -33 -28 -76
-22 -27 4 -79 15 -118 27 -190 54 -291 159 -459 471 -46 86 -48 87 -85 87 -39
0 -81 -28 -81 -54 0 -25 119 -267 165 -336 82 -124 241 -253 373 -306 23 -9
80 -26 125 -38 82 -22 82 -22 80 -54 -3 -72 -39 -77 -178 -23 -238 92 -460
321 -601 621 -30 63 -63 132 -73 153 -11 20 -16 37 -13 37 4 1 185 48 402 105
397 104 432 113 415 96z"/>
</g>
</svg>
